<svg xmlns="http://www.w3.org/2000/svg" xmlns:xlink="http://www.w3.org/1999/xlink" width="100" zoomAndPan="magnify" viewBox="0 0 75 74.999997" height="100" preserveAspectRatio="xMidYMid meet" version="1.0"><defs><g/><clipPath id="01076cf893"><rect x="0" width="73" y="0" height="61"/></clipPath></defs><g transform="matrix(1, 0, 0, 1, 0, -0.000000000000001893)"><g clip-path="url(#01076cf893)"><g fill="#8a8b00" fill-opacity="1"><g transform="translate(0.523399, 40.934862)"><g><path d="M 64.171875 -6.980469 C 66.257812 -6.980469 67.945312 -6.335938 69.226562 -5.054688 C 70.511719 -3.769531 71.152344 -2.085938 71.152344 0 L 71.152344 5.695312 L 67.460938 5.695312 L 67.460938 4.492188 C 67.460938 3.492188 67.167969 2.691406 66.585938 2.089844 C 66.007812 1.5 65.203125 1.203125 64.171875 1.203125 L 60.964844 1.203125 L 60.964844 0 L 62.167969 0 C 62.167969 4.011719 60.9375 7.246094 58.476562 9.707031 C 56.019531 12.167969 52.78125 13.394531 48.773438 13.394531 L 8.984375 13.394531 C 7.992188 13.394531 7.195312 13.695312 6.59375 14.296875 C 5.996094 14.894531 5.695312 15.691406 5.695312 16.683594 L 5.695312 17.886719 L 2.003906 17.886719 L 2.003906 12.191406 C 2.003906 10.148438 2.65625 8.476562 3.960938 7.171875 C 5.265625 5.867188 6.941406 5.214844 8.984375 5.214844 L 50.695312 5.214844 C 52.289062 5.214844 53.558594 4.742188 54.5 3.800781 C 55.441406 2.859375 55.910156 1.59375 55.910156 0 L 57.113281 0 L 57.113281 1.203125 L 39.144531 1.203125 C 36.117188 1.203125 33.664062 0.261719 31.78125 -1.621094 C 29.898438 -3.5 28.957031 -5.957031 28.957031 -8.984375 C 28.957031 -12.011719 29.898438 -14.464844 31.78125 -16.347656 C 33.664062 -18.230469 36.117188 -19.171875 39.144531 -19.171875 L 51.980469 -19.171875 C 55.007812 -19.171875 57.460938 -18.230469 59.34375 -16.347656 C 61.226562 -14.464844 62.167969 -12.011719 62.167969 -8.984375 L 62.167969 -5.777344 L 60.964844 -5.777344 L 60.964844 -6.980469 Z M 64.171875 -4.570312 L 59.761719 -4.570312 L 59.761719 -8.984375 C 59.761719 -11.347656 59.054688 -13.234375 57.644531 -14.648438 C 56.230469 -16.058594 54.34375 -16.765625 51.980469 -16.765625 L 39.144531 -16.765625 C 36.78125 -16.765625 34.894531 -16.058594 33.484375 -14.648438 C 32.070312 -13.234375 31.363281 -11.347656 31.363281 -8.984375 C 31.363281 -6.621094 32.070312 -4.734375 33.484375 -3.320312 C 34.894531 -1.910156 36.78125 -1.203125 39.144531 -1.203125 L 58.316406 -1.203125 L 58.316406 0 C 58.316406 2.257812 57.613281 4.09375 56.199219 5.503906 C 54.789062 6.914062 52.953125 7.621094 50.695312 7.621094 L 8.984375 7.621094 C 7.605469 7.621094 6.5 8.039062 5.664062 8.871094 C 4.828125 9.707031 4.410156 10.8125 4.410156 12.191406 L 4.410156 16.683594 L 3.207031 16.683594 L 3.207031 15.480469 L 4.492188 15.480469 L 4.492188 16.683594 L 3.289062 16.683594 C 3.289062 15.027344 3.824219 13.664062 4.894531 12.59375 C 5.960938 11.523438 7.324219 10.988281 8.984375 10.988281 L 48.773438 10.988281 C 52.117188 10.988281 54.785156 9.996094 56.777344 8.003906 C 58.765625 6.015625 59.761719 3.347656 59.761719 0 L 59.761719 -1.203125 L 64.171875 -1.203125 C 65.878906 -1.203125 67.257812 -0.664062 68.308594 0.410156 C 69.347656 1.480469 69.867188 2.839844 69.867188 4.492188 L 68.664062 4.492188 L 68.664062 3.289062 L 69.949219 3.289062 L 69.949219 4.492188 L 68.746094 4.492188 L 68.746094 0 C 68.746094 -1.421875 68.339844 -2.539062 67.527344 -3.351562 C 66.710938 -4.164062 65.59375 -4.570312 64.171875 -4.570312 Z M 55.910156 -5.777344 L 55.910156 -8.984375 C 55.910156 -9.636719 55.738281 -10.132812 55.398438 -10.476562 C 55.054688 -10.816406 54.558594 -10.988281 53.90625 -10.988281 L 37.21875 -10.988281 C 36.601562 -10.988281 36.113281 -10.8125 35.746094 -10.460938 C 35.390625 -10.121094 35.214844 -9.628906 35.214844 -8.984375 C 35.214844 -8.375 35.398438 -7.890625 35.761719 -7.523438 C 36.125 -7.160156 36.613281 -6.980469 37.21875 -6.980469 L 57.113281 -6.980469 L 57.113281 -5.777344 Z M 58.316406 -4.570312 L 37.21875 -4.570312 C 35.945312 -4.570312 34.894531 -4.988281 34.058594 -5.824219 C 33.226562 -6.65625 32.808594 -7.710938 32.808594 -8.984375 C 32.808594 -10.308594 33.230469 -11.378906 34.074219 -12.191406 C 34.90625 -12.996094 35.957031 -13.394531 37.21875 -13.394531 L 53.90625 -13.394531 C 55.222656 -13.394531 56.285156 -12.988281 57.097656 -12.175781 C 57.910156 -11.363281 58.316406 -10.300781 58.316406 -8.984375 Z M 53.792969 -24.175781 L 49.09375 -19.476562 L 44.710938 -23.855469 L 45.5625 -24.707031 L 46.414062 -23.855469 L 42.035156 -19.476562 L 36.480469 -25.027344 L 42.035156 -30.578125 L 46.414062 -26.199219 L 45.5625 -25.347656 L 44.710938 -26.199219 L 49.09375 -30.578125 L 54.644531 -25.027344 Z M 52.09375 -25.878906 L 52.941406 -25.027344 L 52.09375 -24.175781 L 48.242188 -28.027344 L 49.09375 -28.878906 L 49.945312 -28.027344 L 45.5625 -23.648438 L 41.183594 -28.027344 L 42.035156 -28.878906 L 42.882812 -28.027344 L 39.035156 -24.175781 L 38.183594 -25.027344 L 39.035156 -25.878906 L 42.882812 -22.027344 L 42.035156 -21.175781 L 41.183594 -22.027344 L 45.5625 -26.410156 L 49.945312 -22.027344 L 49.09375 -21.175781 L 48.242188 -22.027344 Z M 52.09375 -25.878906 "/></g></g></g></g></g></svg>